<mxfile host="app.diagrams.net" agent="Mozilla/5.0 (Windows NT 10.0; Win64; x64) AppleWebKit/537.36 (KHTML, like Gecko) Chrome/131.0.0.0 Safari/537.36" version="24.8.6">
  <diagram name="Page-1" id="XJOb2PsG9BJR-bDClyEn">
    <mxGraphModel dx="1114" dy="592" grid="1" gridSize="10" guides="1" tooltips="1" connect="1" arrows="1" fold="1" page="1" pageScale="1" pageWidth="850" pageHeight="1100" math="0" shadow="0">
      <root>
        <mxCell id="0" />
        <mxCell id="1" parent="0" />
        <mxCell id="hBsFgXIkkyhyemqAFRWT-1" value="PG DB1&lt;div&gt;RW&lt;/div&gt;" style="shape=cylinder3;whiteSpace=wrap;html=1;boundedLbl=1;backgroundOutline=1;size=15;fillColor=#d5e8d4;strokeColor=#82b366;" vertex="1" parent="1">
          <mxGeometry x="425" y="380" width="60" height="80" as="geometry" />
        </mxCell>
        <mxCell id="hBsFgXIkkyhyemqAFRWT-2" value="App Server" style="rounded=0;whiteSpace=wrap;html=1;" vertex="1" parent="1">
          <mxGeometry x="300" y="200" width="120" height="50" as="geometry" />
        </mxCell>
        <mxCell id="hBsFgXIkkyhyemqAFRWT-3" value="web service&lt;div&gt;result.mycollege.in&lt;/div&gt;" style="rounded=1;whiteSpace=wrap;html=1;" vertex="1" parent="1">
          <mxGeometry x="300" y="120" width="120" height="40" as="geometry" />
        </mxCell>
        <mxCell id="hBsFgXIkkyhyemqAFRWT-6" value="Actor" style="shape=umlActor;verticalLabelPosition=bottom;verticalAlign=top;html=1;outlineConnect=0;" vertex="1" parent="1">
          <mxGeometry x="50" y="40" width="30" height="60" as="geometry" />
        </mxCell>
        <mxCell id="hBsFgXIkkyhyemqAFRWT-8" value="web service&lt;div&gt;result.mycollege.in&lt;/div&gt;" style="rounded=1;whiteSpace=wrap;html=1;" vertex="1" parent="1">
          <mxGeometry x="450" y="120" width="120" height="40" as="geometry" />
        </mxCell>
        <mxCell id="hBsFgXIkkyhyemqAFRWT-9" value="App Server" style="rounded=0;whiteSpace=wrap;html=1;" vertex="1" parent="1">
          <mxGeometry x="460" y="200" width="120" height="50" as="geometry" />
        </mxCell>
        <mxCell id="hBsFgXIkkyhyemqAFRWT-10" value="App Server" style="rounded=0;whiteSpace=wrap;html=1;" vertex="1" parent="1">
          <mxGeometry x="620" y="200" width="120" height="50" as="geometry" />
        </mxCell>
        <mxCell id="hBsFgXIkkyhyemqAFRWT-12" value="web service&lt;div&gt;result.mycollege.in&lt;/div&gt;" style="rounded=1;whiteSpace=wrap;html=1;" vertex="1" parent="1">
          <mxGeometry x="610" y="120" width="120" height="40" as="geometry" />
        </mxCell>
        <mxCell id="hBsFgXIkkyhyemqAFRWT-13" value="PG DB1&lt;div&gt;RO&lt;/div&gt;" style="shape=cylinder3;whiteSpace=wrap;html=1;boundedLbl=1;backgroundOutline=1;size=15;fillColor=#f8cecc;strokeColor=#b85450;" vertex="1" parent="1">
          <mxGeometry x="595" y="380" width="60" height="80" as="geometry" />
        </mxCell>
        <mxCell id="hBsFgXIkkyhyemqAFRWT-14" value="" style="endArrow=none;html=1;rounded=0;entryX=0.592;entryY=1.04;entryDx=0;entryDy=0;entryPerimeter=0;" edge="1" parent="1" target="hBsFgXIkkyhyemqAFRWT-2">
          <mxGeometry width="50" height="50" relative="1" as="geometry">
            <mxPoint x="450" y="380" as="sourcePoint" />
            <mxPoint x="500" y="330" as="targetPoint" />
          </mxGeometry>
        </mxCell>
        <mxCell id="hBsFgXIkkyhyemqAFRWT-15" value="" style="endArrow=none;html=1;rounded=0;entryX=0.633;entryY=1.06;entryDx=0;entryDy=0;entryPerimeter=0;" edge="1" parent="1" target="hBsFgXIkkyhyemqAFRWT-2">
          <mxGeometry width="50" height="50" relative="1" as="geometry">
            <mxPoint x="620" y="380" as="sourcePoint" />
            <mxPoint x="541" y="252" as="targetPoint" />
          </mxGeometry>
        </mxCell>
        <mxCell id="hBsFgXIkkyhyemqAFRWT-16" value="" style="endArrow=none;html=1;rounded=0;entryX=0.592;entryY=1.04;entryDx=0;entryDy=0;entryPerimeter=0;exitX=0.5;exitY=0;exitDx=0;exitDy=0;exitPerimeter=0;" edge="1" parent="1" source="hBsFgXIkkyhyemqAFRWT-1">
          <mxGeometry width="50" height="50" relative="1" as="geometry">
            <mxPoint x="595" y="378" as="sourcePoint" />
            <mxPoint x="516" y="250" as="targetPoint" />
          </mxGeometry>
        </mxCell>
        <mxCell id="hBsFgXIkkyhyemqAFRWT-17" value="" style="endArrow=none;html=1;rounded=0;entryX=0.592;entryY=1.04;entryDx=0;entryDy=0;entryPerimeter=0;exitX=0.5;exitY=0;exitDx=0;exitDy=0;exitPerimeter=0;" edge="1" parent="1" source="hBsFgXIkkyhyemqAFRWT-13">
          <mxGeometry width="50" height="50" relative="1" as="geometry">
            <mxPoint x="680" y="290" as="sourcePoint" />
            <mxPoint x="516" y="252" as="targetPoint" />
          </mxGeometry>
        </mxCell>
        <mxCell id="hBsFgXIkkyhyemqAFRWT-18" value="" style="endArrow=none;html=1;rounded=0;entryX=0.592;entryY=1.04;entryDx=0;entryDy=0;entryPerimeter=0;" edge="1" parent="1">
          <mxGeometry width="50" height="50" relative="1" as="geometry">
            <mxPoint x="460" y="380" as="sourcePoint" />
            <mxPoint x="680" y="252" as="targetPoint" />
          </mxGeometry>
        </mxCell>
        <mxCell id="hBsFgXIkkyhyemqAFRWT-19" value="" style="endArrow=none;html=1;rounded=0;entryX=0.592;entryY=1.04;entryDx=0;entryDy=0;entryPerimeter=0;exitX=0.5;exitY=0;exitDx=0;exitDy=0;exitPerimeter=0;" edge="1" parent="1" source="hBsFgXIkkyhyemqAFRWT-13">
          <mxGeometry width="50" height="50" relative="1" as="geometry">
            <mxPoint x="630" y="370" as="sourcePoint" />
            <mxPoint x="680" y="252" as="targetPoint" />
          </mxGeometry>
        </mxCell>
        <mxCell id="hBsFgXIkkyhyemqAFRWT-21" value="" style="endArrow=none;html=1;rounded=0;entryX=0.592;entryY=1.04;entryDx=0;entryDy=0;entryPerimeter=0;exitX=0.5;exitY=0;exitDx=0;exitDy=0;" edge="1" parent="1" source="hBsFgXIkkyhyemqAFRWT-9">
          <mxGeometry width="50" height="50" relative="1" as="geometry">
            <mxPoint x="439" y="288" as="sourcePoint" />
            <mxPoint x="360" y="160" as="targetPoint" />
          </mxGeometry>
        </mxCell>
        <mxCell id="hBsFgXIkkyhyemqAFRWT-22" value="" style="endArrow=none;html=1;rounded=0;entryX=0.592;entryY=1.04;entryDx=0;entryDy=0;entryPerimeter=0;exitX=0.5;exitY=0;exitDx=0;exitDy=0;" edge="1" parent="1" source="hBsFgXIkkyhyemqAFRWT-2">
          <mxGeometry width="50" height="50" relative="1" as="geometry">
            <mxPoint x="520" y="200" as="sourcePoint" />
            <mxPoint x="360" y="160" as="targetPoint" />
          </mxGeometry>
        </mxCell>
        <mxCell id="hBsFgXIkkyhyemqAFRWT-23" value="" style="endArrow=none;html=1;rounded=0;entryX=0.592;entryY=1.04;entryDx=0;entryDy=0;entryPerimeter=0;exitX=0.5;exitY=0;exitDx=0;exitDy=0;" edge="1" parent="1">
          <mxGeometry width="50" height="50" relative="1" as="geometry">
            <mxPoint x="519.5" y="200" as="sourcePoint" />
            <mxPoint x="519.5" y="160" as="targetPoint" />
          </mxGeometry>
        </mxCell>
        <mxCell id="hBsFgXIkkyhyemqAFRWT-24" value="" style="endArrow=none;html=1;rounded=0;entryX=0.592;entryY=1.04;entryDx=0;entryDy=0;entryPerimeter=0;exitX=0.5;exitY=0;exitDx=0;exitDy=0;" edge="1" parent="1">
          <mxGeometry width="50" height="50" relative="1" as="geometry">
            <mxPoint x="679.5" y="200" as="sourcePoint" />
            <mxPoint x="679.5" y="160" as="targetPoint" />
          </mxGeometry>
        </mxCell>
        <mxCell id="hBsFgXIkkyhyemqAFRWT-25" value="" style="endArrow=none;html=1;rounded=0;entryX=0.592;entryY=1.04;entryDx=0;entryDy=0;entryPerimeter=0;exitX=0.5;exitY=0;exitDx=0;exitDy=0;" edge="1" parent="1">
          <mxGeometry width="50" height="50" relative="1" as="geometry">
            <mxPoint x="680" y="200" as="sourcePoint" />
            <mxPoint x="520" y="160" as="targetPoint" />
          </mxGeometry>
        </mxCell>
        <mxCell id="hBsFgXIkkyhyemqAFRWT-26" value="" style="endArrow=none;html=1;rounded=0;entryX=0.592;entryY=1.04;entryDx=0;entryDy=0;entryPerimeter=0;exitX=0.5;exitY=0;exitDx=0;exitDy=0;" edge="1" parent="1" source="hBsFgXIkkyhyemqAFRWT-9">
          <mxGeometry width="50" height="50" relative="1" as="geometry">
            <mxPoint x="840" y="200" as="sourcePoint" />
            <mxPoint x="680" y="160" as="targetPoint" />
          </mxGeometry>
        </mxCell>
        <mxCell id="hBsFgXIkkyhyemqAFRWT-27" value="" style="endArrow=none;html=1;rounded=0;entryX=0.592;entryY=1.04;entryDx=0;entryDy=0;entryPerimeter=0;exitX=0.5;exitY=0;exitDx=0;exitDy=0;" edge="1" parent="1" source="hBsFgXIkkyhyemqAFRWT-2">
          <mxGeometry width="50" height="50" relative="1" as="geometry">
            <mxPoint x="680" y="200" as="sourcePoint" />
            <mxPoint x="520" y="160" as="targetPoint" />
          </mxGeometry>
        </mxCell>
        <mxCell id="hBsFgXIkkyhyemqAFRWT-28" value="" style="endArrow=classic;html=1;rounded=0;" edge="1" parent="1">
          <mxGeometry width="50" height="50" relative="1" as="geometry">
            <mxPoint x="495" y="430" as="sourcePoint" />
            <mxPoint x="580" y="430" as="targetPoint" />
          </mxGeometry>
        </mxCell>
        <mxCell id="hBsFgXIkkyhyemqAFRWT-29" value="123456" style="shape=process;whiteSpace=wrap;html=1;backgroundOutline=1;" vertex="1" parent="1">
          <mxGeometry x="395" y="470" width="120" height="30" as="geometry" />
        </mxCell>
        <mxCell id="hBsFgXIkkyhyemqAFRWT-30" value="123456" style="shape=process;whiteSpace=wrap;html=1;backgroundOutline=1;" vertex="1" parent="1">
          <mxGeometry x="580" y="470" width="120" height="30" as="geometry" />
        </mxCell>
        <mxCell id="hBsFgXIkkyhyemqAFRWT-33" value="M" style="shape=cylinder3;whiteSpace=wrap;html=1;boundedLbl=1;backgroundOutline=1;size=15;fillColor=#d5e8d4;strokeColor=#82b366;" vertex="1" parent="1">
          <mxGeometry x="70" y="700" width="60" height="80" as="geometry" />
        </mxCell>
        <mxCell id="hBsFgXIkkyhyemqAFRWT-37" value="M" style="shape=cylinder3;whiteSpace=wrap;html=1;boundedLbl=1;backgroundOutline=1;size=15;fillColor=#d5e8d4;strokeColor=#82b366;" vertex="1" parent="1">
          <mxGeometry x="180" y="830" width="60" height="80" as="geometry" />
        </mxCell>
        <mxCell id="hBsFgXIkkyhyemqAFRWT-38" value="" style="endArrow=none;dashed=1;html=1;dashPattern=1 3;strokeWidth=2;rounded=0;" edge="1" parent="1">
          <mxGeometry width="50" height="50" relative="1" as="geometry">
            <mxPoint x="140" y="750" as="sourcePoint" />
            <mxPoint x="280" y="750" as="targetPoint" />
          </mxGeometry>
        </mxCell>
        <mxCell id="hBsFgXIkkyhyemqAFRWT-41" value="" style="endArrow=none;dashed=1;html=1;dashPattern=1 3;strokeWidth=2;rounded=0;" edge="1" parent="1">
          <mxGeometry width="50" height="50" relative="1" as="geometry">
            <mxPoint x="150" y="760" as="sourcePoint" />
            <mxPoint x="200" y="820" as="targetPoint" />
          </mxGeometry>
        </mxCell>
        <mxCell id="hBsFgXIkkyhyemqAFRWT-42" value="" style="endArrow=none;dashed=1;html=1;dashPattern=1 3;strokeWidth=2;rounded=0;" edge="1" parent="1">
          <mxGeometry width="50" height="50" relative="1" as="geometry">
            <mxPoint x="280" y="750" as="sourcePoint" />
            <mxPoint x="210" y="820" as="targetPoint" />
          </mxGeometry>
        </mxCell>
        <mxCell id="hBsFgXIkkyhyemqAFRWT-43" value="1.1.1.1" style="rounded=1;whiteSpace=wrap;html=1;" vertex="1" parent="1">
          <mxGeometry x="510" y="40" width="120" height="20" as="geometry" />
        </mxCell>
        <mxCell id="hBsFgXIkkyhyemqAFRWT-45" value="1.1.1.1" style="rounded=1;whiteSpace=wrap;html=1;" vertex="1" parent="1">
          <mxGeometry x="350" y="40" width="120" height="20" as="geometry" />
        </mxCell>
      </root>
    </mxGraphModel>
  </diagram>
</mxfile>
